<?xml version="1.0" standalone="no"?><!DOCTYPE svg PUBLIC "-//W3C//DTD SVG 1.1//EN" "http://www.w3.org/Graphics/SVG/1.1/DTD/svg11.dtd"><svg t="1649228542096" class="icon" viewBox="0 0 1024 1024" version="1.1" xmlns="http://www.w3.org/2000/svg" p-id="7142" xmlns:xlink="http://www.w3.org/1999/xlink" width="100" height="100"><defs><style type="text/css">@font-face { font-family: feedback-iconfont; src: url("//at.alicdn.com/t/font_1031158_u69w8yhxdu.woff2?t=1630033759944") format("woff2"), url("//at.alicdn.com/t/font_1031158_u69w8yhxdu.woff?t=1630033759944") format("woff"), url("//at.alicdn.com/t/font_1031158_u69w8yhxdu.ttf?t=1630033759944") format("truetype"); }
</style></defs><path d="M842.259558 349.076378c0-2.283008-0.570982-4.48-1.536-6.411059l0-3.687996-2.591117 0c-3.030118-3.16201-7.509299-5.182054-12.470477-5.182054l-51.242111 0c-6.059213-19.407053-28.717158-86.848-54.183219-101.249024-25.291059-14.270054-126.458163-8.517018-126.458163-8.517018l0-58.836013c0-19.584 4.830208-33.89911 14.445568-42.766029 9.616384-8.86999 25.732096-13.349069 48.300032-13.349069l126.238178 0c0 0.088986 0 0.088986 0 0.176026 0.045056-0.086938 0.088986-0.086938 0.088986-0.176026l0.088008 0 0-0.172939c21.77792-33.37001 2.107085-60.330086 0-63.053107l0-0.176009L650.509657 45.676061c-17.915802 0-34.117427 3.250995-51.286118 10.540032-15.982694 6.804992-33.020416 18.701926-43.644723 30.996992-10.626458 12.205978-15.28064 19.67104-19.539763 33.720013-4.435149 14.841037-6.981325 32.581018-6.981325 42.413978l0 60.682058c0 0-169.664-3.250995-195.703091 15.805952-23.094886 16.948019-51.506176 75.957965-59.803443 93.959987l-44.172822 0c-9.176371 0-16.597709 6.850048-16.597709 15.28105l0 98.264001c0 8.429978 7.420314 15.323034 16.597709 15.323034l58.618404 0 52.867174 452.024013c0 0 183.627571 67.970048 379.373568 0l0-0.041956 50.891059-451.982029 54.534222 0c6.191206 0 11.591475-3.116954 14.445568-7.771034l0.616056 0 0-1.140986c0.965018-1.931981 1.536-4.128051 1.536-6.411059L842.260422 349.07635z" p-id="7143"></path></svg>