<?xml version="1.0" standalone="no"?><!DOCTYPE svg PUBLIC "-//W3C//DTD SVG 1.1//EN" "http://www.w3.org/Graphics/SVG/1.1/DTD/svg11.dtd"><svg t="1649228634939" class="icon" viewBox="0 0 1024 1024" version="1.1" xmlns="http://www.w3.org/2000/svg" p-id="7442" xmlns:xlink="http://www.w3.org/1999/xlink" width="100" height="100"><defs><style type="text/css">@font-face { font-family: feedback-iconfont; src: url("//at.alicdn.com/t/font_1031158_u69w8yhxdu.woff2?t=1630033759944") format("woff2"), url("//at.alicdn.com/t/font_1031158_u69w8yhxdu.woff?t=1630033759944") format("woff"), url("//at.alicdn.com/t/font_1031158_u69w8yhxdu.ttf?t=1630033759944") format("truetype"); }
</style></defs><path d="M606.440243 60.307558c0 0-28.452147-15.804928-77.275034-14.575923-48.824934-1.229005-77.233152 14.575923-77.233152 14.575923l0 59.271942 154.507147 0L606.439205 60.307527zM818.24768 865.791795c0 0 0-504.910541 0-532.569498 0-27.661005-17.474662-36.880998-17.474662-36.880998L607.187251 142.147482 451.187026 142.147482l-193.58679 154.193818c0 0-17.518694 9.219994-17.518694 36.880998 0 27.658957 0 532.569498 0 532.569498s-6.761267 79.115878 79.471206 79.115878l132.37929 0c78.550118 0 154.507162 0 154.507162 0l132.37929 0C825.008947 944.908698 818.24768 865.791795 818.24768 865.791795zM738.77545 674.453914c0 8.691917-7.287296 15.804928-16.245658 15.804928L604.202131 690.258842c-8.956314 0-16.201626-7.113011-16.201626-15.804928L588.000506 413.304164c0-8.779981 7.245312-15.84896 16.201626-15.84896l118.328721 0c8.958362 0 16.245658 7.068979 16.245658 15.84896L738.776509 674.453952z" p-id="7443"></path></svg>