<?xml version="1.0" standalone="no"?><!DOCTYPE svg PUBLIC "-//W3C//DTD SVG 1.1//EN" "http://www.w3.org/Graphics/SVG/1.1/DTD/svg11.dtd"><svg t="1642836679564" class="icon" viewBox="0 0 1024 1024" version="1.1" xmlns="http://www.w3.org/2000/svg" p-id="1957" xmlns:xlink="http://www.w3.org/1999/xlink" width="200" height="200"><defs><style type="text/css"></style></defs><path d="M371.2 288h409.6a51.2 51.2 0 0 1 51.2 51.2v569.6a51.2 51.2 0 0 1-51.2 51.2H371.2a51.2 51.2 0 0 1-51.2-51.2V339.2A51.2 51.2 0 0 1 371.2 288z" fill="#CAE705" p-id="1958"></path><path d="M437.44 128v64H256v704h512V192h-192.256V128H768a64 64 0 0 1 64 64v704a64 64 0 0 1-64 64H256a64 64 0 0 1-64-64V192a64 64 0 0 1 64-64h181.44z" fill="#2B82D8" p-id="1959"></path><path d="M512 192a32 32 0 1 0 0-64 32 32 0 0 0 0 64z m0 64a96 96 0 1 1 0-192 96 96 0 0 1 0 192z" fill="#2B82D8" p-id="1960"></path><path d="M416 256a32 32 0 0 1 0-64h192a32 32 0 0 1 0 64h-192zM384 512a32 32 0 0 1 0-64h256a32 32 0 0 1 0 64h-256zM384 680a32 32 0 0 1 0-64h256a32 32 0 0 1 0 64h-256z" fill="#2B82D8" p-id="1961"></path></svg>