<?xml version="1.0" standalone="no"?><!DOCTYPE svg PUBLIC "-//W3C//DTD SVG 1.1//EN" "http://www.w3.org/Graphics/SVG/1.1/DTD/svg11.dtd"><svg t="1649228199016" class="icon" viewBox="0 0 1024 1024" version="1.1" xmlns="http://www.w3.org/2000/svg" p-id="1169" xmlns:xlink="http://www.w3.org/1999/xlink" width="100" height="100"><defs><style type="text/css">@font-face { font-family: feedback-iconfont; src: url("//at.alicdn.com/t/font_1031158_u69w8yhxdu.woff2?t=1630033759944") format("woff2"), url("//at.alicdn.com/t/font_1031158_u69w8yhxdu.woff?t=1630033759944") format("woff"), url("//at.alicdn.com/t/font_1031158_u69w8yhxdu.ttf?t=1630033759944") format("truetype"); }
</style></defs><path d="M192 832a32 32 0 0 1 0-64h640a32 32 0 0 1 0 64H192z" fill="#2B82D8" p-id="1170"></path><path d="M362.048 784.192l-90.528-90.528 294.176-294.144 90.496 90.528z" fill="#CAE705" p-id="1171"></path><path d="M277.216 698.304l-29.6 102.4 107.104-23.776z" fill="#CAE705" p-id="1172"></path><path d="M537.408 167.584a31.968 31.968 0 1 1 45.248 45.248L492.16 303.36a31.968 31.968 0 1 1-45.248-45.248l90.496-90.528zM261.152 658.816l-24.256 92.128 92.128-24.256L701.44 354.272 633.568 286.4 261.152 658.816z m395.04-440.32l113.152 113.152a31.968 31.968 0 0 1 0 45.248L362.048 784.192l-161.92 42.592a32 32 0 0 1-39.104-39.104l42.592-161.92L610.944 218.496a32 32 0 0 1 45.248 0z" fill="#2B82D8" p-id="1173"></path><path d="M565.696 354.272l-271.52 271.52 67.872 67.872 271.52-271.52-67.872-67.872z m0-90.496l158.4 158.4-362.048 362.016-158.4-158.4L565.696 263.776z" fill="#2B82D8" p-id="1174"></path><path d="M525.248 314.528L480 269.28 525.248 224l45.248 45.28z" fill="#2B82D8" p-id="1175"></path></svg>